<svg width="32" height="32" viewBox="0 0 32 32" fill="none" xmlns="http://www.w3.org/2000/svg">
<rect x="2" y="2" width="28" height="28" rx="5" fill="#49BBBD"/>
<path d="M18.3 6.925H22C22.35 6.925 22.525 7.1 22.525 7.45V22.475C22.525 22.825 22.35 23 22 23H19.95C19.6 23 19.425 22.825 19.425 22.475V10.625H19.325L16.775 19C16.675 19.3333 16.4667 19.5 16.15 19.5H14.05C13.7333 19.5 13.525 19.3333 13.425 19L10.825 10.6H10.725V22.475C10.725 22.675 10.6917 22.8167 10.625 22.9C10.5583 22.9667 10.4167 23 10.2 23H8.15C7.8 23 7.625 22.825 7.625 22.475V7.45C7.625 7.1 7.8 6.925 8.15 6.925H11.875C12.1083 6.925 12.2667 7.04167 12.35 7.275L15 16.1H15.15L17.825 7.275C17.875 7.04167 18.0333 6.925 18.3 6.925Z" fill="white"/>
<path d="M28 24C15.027 24.3556 6.59459 26.1481 4 27" stroke="white"/>
</svg>
