<svg width="174" height="70" viewBox="0 0 174 70" fill="none" xmlns="http://www.w3.org/2000/svg">
<path d="M24.6 14.85H32C32.7 14.85 33.05 15.2 33.05 15.9V45.95C33.05 46.65 32.7 47 32 47H27.9C27.2 47 26.85 46.65 26.85 45.95V22.25H26.65L21.55 39C21.35 39.6667 20.9333 40 20.3 40H16.1C15.4667 40 15.05 39.6667 14.85 39L9.65 22.2H9.45V45.95C9.45 46.35 9.38333 46.6333 9.25 46.8C9.11667 46.9333 8.83333 47 8.4 47H4.3C3.6 47 3.25 46.65 3.25 45.95V15.9C3.25 15.2 3.6 14.85 4.3 14.85H11.75C12.2167 14.85 12.5333 15.0833 12.7 15.55L18 33.2H18.3L23.65 15.55C23.75 15.0833 24.0667 14.85 24.6 14.85ZM57.8293 47H46.7793C44.146 47 42.1126 46.3 40.6793 44.9C39.246 43.5 38.5293 41.4833 38.5293 38.85V29.65C38.5293 27.0167 39.246 25 40.6793 23.6C42.1126 22.2 44.146 21.5 46.7793 21.5H50.7293C53.3626 21.5 55.396 22.2 56.8293 23.6C58.2626 25 58.9793 27.0167 58.9793 29.65V36C58.9793 36.7 58.6293 37.05 57.9293 37.05H45.3793C44.9793 37.05 44.7793 37.2333 44.7793 37.6V38.7C44.7793 39.7333 44.996 40.4833 45.4293 40.95C45.896 41.3833 46.6626 41.6 47.7293 41.6H57.8293C58.5293 41.6 58.8793 41.9667 58.8793 42.7V46C58.8793 46.3667 58.796 46.6333 58.6293 46.8C58.496 46.9333 58.2293 47 57.8293 47ZM45.3793 32.8H52.1793C52.546 32.8 52.7293 32.6167 52.7293 32.25V29.85C52.7293 28.7833 52.5126 28.0333 52.0793 27.6C51.646 27.1667 50.896 26.95 49.8293 26.95H47.7293C46.6626 26.95 45.9126 27.1667 45.4793 27.6C45.046 28.0333 44.8293 28.7833 44.8293 29.85V32.25C44.8293 32.6167 45.0126 32.8 45.3793 32.8ZM69.0363 47H64.7863C64.0863 47 63.7363 46.65 63.7363 45.95V22.55C63.7363 21.85 64.0863 21.5 64.7863 21.5H69.0363C69.7363 21.5 70.0863 21.85 70.0863 22.55V24.2H70.2863C71.0197 22.4 72.653 21.5 75.1863 21.5H76.7863C82.0197 21.5 84.6363 24.2167 84.6363 29.65V45.95C84.6363 46.65 84.2697 47 83.5363 47H79.3363C78.6363 47 78.2863 46.65 78.2863 45.95V29.95C78.2863 28.8833 78.053 28.1333 77.5863 27.7C77.153 27.2333 76.403 27 75.3363 27H73.5363C71.2363 27 70.0863 28.2667 70.0863 30.8V45.95C70.0863 46.65 69.7363 47 69.0363 47ZM90.4582 27H88.4582C88.0582 27 87.7749 26.9333 87.6082 26.8C87.4749 26.6667 87.4082 26.4 87.4082 26V22.55C87.4082 21.85 87.7582 21.5 88.4582 21.5H90.4582C90.8249 21.5 91.0082 21.3167 91.0082 20.95V16.2C91.0082 15.5 91.3749 15.15 92.1082 15.15H96.3082C97.0082 15.15 97.3582 15.5 97.3582 16.2V20.95C97.3582 21.3167 97.5582 21.5 97.9582 21.5H101.858C102.558 21.5 102.908 21.85 102.908 22.55V26C102.908 26.3667 102.825 26.6333 102.658 26.8C102.525 26.9333 102.258 27 101.858 27H97.9582C97.5582 27 97.3582 27.1833 97.3582 27.55V38.6C97.3582 39.6333 97.5915 40.3833 98.0582 40.85C98.5249 41.2833 99.2915 41.5 100.358 41.5H102.358C103.058 41.5 103.408 41.85 103.408 42.55V46C103.408 46.3667 103.325 46.6333 103.158 46.8C103.025 46.9333 102.758 47 102.358 47H99.3082C96.6749 47 94.6249 46.3 93.1582 44.9C91.7249 43.5 91.0082 41.5 91.0082 38.9V27.55C91.0082 27.1833 90.8249 27 90.4582 27ZM119.735 47H115.285C112.652 47 110.618 46.3 109.185 44.9C107.752 43.5 107.035 41.4833 107.035 38.85V29.65C107.035 27.0167 107.752 25 109.185 23.6C110.618 22.2 112.652 21.5 115.285 21.5H119.735C122.335 21.5 124.352 22.2167 125.785 23.65C127.252 25.05 127.985 27.05 127.985 29.65V38.85C127.985 41.45 127.252 43.4667 125.785 44.9C124.352 46.3 122.335 47 119.735 47ZM116.235 41.55H118.785C119.852 41.55 120.602 41.3333 121.035 40.9C121.502 40.4667 121.735 39.7167 121.735 38.65V29.85C121.735 28.7833 121.502 28.0333 121.035 27.6C120.602 27.1667 119.852 26.95 118.785 26.95H116.235C115.168 26.95 114.418 27.1667 113.985 27.6C113.552 28.0333 113.335 28.7833 113.335 29.85V38.65C113.335 39.7167 113.552 40.4667 113.985 40.9C114.418 41.3333 115.168 41.55 116.235 41.55ZM138.275 47H134.025C133.325 47 132.975 46.65 132.975 45.95V22.55C132.975 21.85 133.325 21.5 134.025 21.5H138.275C138.975 21.5 139.325 21.85 139.325 22.55V24.25H139.525C139.891 23.35 140.541 22.6667 141.475 22.2C142.408 21.7333 143.391 21.5 144.425 21.5H146.225C146.891 21.5 147.225 21.85 147.225 22.55V26C147.225 26.4 147.141 26.6833 146.975 26.85C146.841 26.9833 146.591 27.0333 146.225 27H142.775C140.475 27 139.325 28.3 139.325 30.9V45.95C139.325 46.65 138.975 47 138.275 47ZM159.356 47H158.156C155.523 47 153.49 46.3 152.056 44.9C150.623 43.5 149.906 41.4833 149.906 38.85V29.65C149.906 27.0167 150.623 25 152.056 23.6C153.49 22.2 155.523 21.5 158.156 21.5H169.706C170.44 21.5 170.806 21.85 170.806 22.55V45.95C170.806 46.65 170.44 47 169.706 47H165.506C164.806 47 164.456 46.65 164.456 45.95V44.3H164.256C163.89 45.2 163.24 45.8833 162.306 46.35C161.373 46.7833 160.39 47 159.356 47ZM164.456 37.7V27.55C164.456 27.1833 164.256 27 163.856 27H159.156C158.09 27 157.34 27.2333 156.906 27.7C156.473 28.1333 156.256 28.8833 156.256 29.95V38.55C156.256 39.6167 156.473 40.3833 156.906 40.85C157.34 41.2833 158.09 41.5 159.156 41.5H161.006C163.306 41.5 164.456 40.2333 164.456 37.7Z" fill="#49BBBD"/>
<path d="M167 55.5C107 57.1 68 65.1667 56 69" stroke="#49BBBD"/>
</svg>
